<svg width="14" height="13" viewBox="0 0 14 13" fill="none" xmlns="http://www.w3.org/2000/svg">
<path d="M12.0747 1.55827C11.7815 1.25042 11.4333 1.00621 11.0502 0.839592C10.667 0.672977 10.2563 0.587219 9.84153 0.587219C9.42677 0.587219 9.01607 0.672977 8.63289 0.839592C8.24972 1.00621 7.90158 1.25042 7.60837 1.55827L6.99985 2.19687L6.39132 1.55827C5.79905 0.936722 4.99576 0.587541 4.15816 0.587541C3.32057 0.587541 2.51728 0.936722 1.92501 1.55827C1.33273 2.17981 1 3.02281 1 3.90181C1 4.7808 1.33273 5.6238 1.92501 6.24534L2.53353 6.88394L6.99985 11.571L11.4662 6.88394L12.0747 6.24534C12.368 5.93764 12.6007 5.57229 12.7595 5.17018C12.9183 4.76807 13 4.33707 13 3.90181C13 3.46654 12.9183 3.03554 12.7595 2.63343C12.6007 2.23132 12.368 1.86597 12.0747 1.55827Z" stroke="#9B9797" stroke-linecap="round" stroke-linejoin="round"/>
</svg>
