<svg width="258" height="177" viewBox="0 0 258 177" fill="none" xmlns="http://www.w3.org/2000/svg">
<g filter="url(#filter0_d_118_528)">
<path d="M77.4748 1.85318C78.6212 0.804174 80.3788 0.80417 81.5252 1.85317L142.652 57.7867C144.671 59.6346 143.364 63 140.627 63H18.3734C15.6361 63 14.3288 59.6346 16.3482 57.7868L77.4748 1.85318Z" fill="white"/>
<rect x="35" y="41" width="89" height="85" rx="3" fill="white"/>
<rect x="170" y="73" width="82" height="72" rx="3" fill="white"/>
<path d="M222.923 35.3268C224.086 33.3738 226.914 33.3738 228.077 35.3268L250.944 73.7147C252.135 75.7144 250.694 78.25 248.367 78.25H202.633C200.306 78.25 198.865 75.7144 200.056 73.7147L222.923 35.3268Z" fill="white"/>
<rect x="170" y="34" width="57" height="46" rx="3" fill="white"/>
<circle cx="46" cy="154" r="14" fill="white" stroke="#FFC101" stroke-width="2"/>
<circle cx="207" cy="149" r="20" fill="white"/>
<circle cx="46" cy="154" r="15" fill="white"/>
<circle cx="85" cy="154" r="15" fill="white"/>
<rect x="8" y="123" width="170" height="22" rx="3" fill="white"/>
<g filter="url(#filter1_i_118_528)">
<rect x="187" y="92" width="13" height="7" rx="3" fill="#FFC801"/>
</g>
<g filter="url(#filter2_i_118_528)">
<path d="M187 75C187 73.3431 188.343 72 190 72H225C227.761 72 230 74.2386 230 77V84C230 85.6569 228.657 87 227 87H190C188.343 87 187 85.6569 187 84V75Z" fill="#FFC801"/>
<path d="M210.951 53.1069C212.124 51.2163 214.876 51.2163 216.049 53.1069L229.276 74.418C230.516 76.4164 229.079 79 226.727 79H200.273C197.921 79 196.484 76.4164 197.724 74.418L210.951 53.1069Z" fill="#FFC801"/>
<rect x="187" y="51" width="29" height="28" rx="3" fill="#FFC801"/>
</g>
</g>
<defs>
<filter id="filter0_d_118_528" x="4" y="1.06641" width="252" height="175.934" filterUnits="userSpaceOnUse" color-interpolation-filters="sRGB">
<feFlood flood-opacity="0" result="BackgroundImageFix"/>
<feColorMatrix in="SourceAlpha" type="matrix" values="0 0 0 0 0 0 0 0 0 0 0 0 0 0 0 0 0 0 127 0" result="hardAlpha"/>
<feOffset dy="4"/>
<feGaussianBlur stdDeviation="2"/>
<feComposite in2="hardAlpha" operator="out"/>
<feColorMatrix type="matrix" values="0 0 0 0 0 0 0 0 0 0 0 0 0 0 0 0 0 0 0.25 0"/>
<feBlend mode="normal" in2="BackgroundImageFix" result="effect1_dropShadow_118_528"/>
<feBlend mode="normal" in="SourceGraphic" in2="effect1_dropShadow_118_528" result="shape"/>
</filter>
<filter id="filter1_i_118_528" x="187" y="92" width="13" height="11" filterUnits="userSpaceOnUse" color-interpolation-filters="sRGB">
<feFlood flood-opacity="0" result="BackgroundImageFix"/>
<feBlend mode="normal" in="SourceGraphic" in2="BackgroundImageFix" result="shape"/>
<feColorMatrix in="SourceAlpha" type="matrix" values="0 0 0 0 0 0 0 0 0 0 0 0 0 0 0 0 0 0 127 0" result="hardAlpha"/>
<feOffset dy="4"/>
<feGaussianBlur stdDeviation="2"/>
<feComposite in2="hardAlpha" operator="arithmetic" k2="-1" k3="1"/>
<feColorMatrix type="matrix" values="0 0 0 0 0 0 0 0 0 0 0 0 0 0 0 0 0 0 0.25 0"/>
<feBlend mode="normal" in2="shape" result="effect1_innerShadow_118_528"/>
</filter>
<filter id="filter2_i_118_528" x="187" y="51" width="43" height="40" filterUnits="userSpaceOnUse" color-interpolation-filters="sRGB">
<feFlood flood-opacity="0" result="BackgroundImageFix"/>
<feBlend mode="normal" in="SourceGraphic" in2="BackgroundImageFix" result="shape"/>
<feColorMatrix in="SourceAlpha" type="matrix" values="0 0 0 0 0 0 0 0 0 0 0 0 0 0 0 0 0 0 127 0" result="hardAlpha"/>
<feOffset dy="4"/>
<feGaussianBlur stdDeviation="2"/>
<feComposite in2="hardAlpha" operator="arithmetic" k2="-1" k3="1"/>
<feColorMatrix type="matrix" values="0 0 0 0 0 0 0 0 0 0 0 0 0 0 0 0 0 0 0.25 0"/>
<feBlend mode="normal" in2="shape" result="effect1_innerShadow_118_528"/>
</filter>
</defs>
</svg>
